{"title":"Hard Boiled Sweets 2012 BDRIP XVID AC3-WDR","uid":7438990,"size":1378678672,"categoryP":"video","categoryS":"movies","magnet":"?xt=urn:btih:e228725c413583989c816df3fd94d79b05652378&amp;dn=Hard+Boiled+Sweets+2012+BDRIP+XVID+AC3-WDR&amp;tr=udp%3A%2F%2Ftracker.openbittorrent.com%3A80&amp;tr=udp%3A%2F%2Fopen.demonii.com%3A1337&amp;tr=udp%3A%2F%2Ftracker.coppersurfer.tk%3A6969&amp;tr=udp%3A%2F%2Fexodus.desync.com%3A6969","seeders":2,"leechers":0,"uploader":"tykoon123","files":-1,"time":1342168638,"description":"Cover: &lt;a href=&quot;\nhttp://imgh.us/1G9hQMIe.jpeg&quot; rel=&quot;nofollow&quot; target=&quot;_NEW&quot;&gt;\nhttp://imgh.us/1G9hQMIe.jpeg&lt;/a&gt;\n\nInfo:\n\nFormat : AVI\nFormat/Info : Audio Video Interleave\nFormat profile : OpenDML\nFormat settings : rec\nFile size : 1.28 GiB\nDuration : 1h 24mn\nOverall bit rate : 2 175 Kbps\nWriting application : AVI-Mux GUI 1.17.8.3, Feb 16 201019:42:50\n\nVideo\nID : 0\nFormat : MPEG-4 Visual\nCodec ID : XVID\nCodec ID/Hint : XviD\nDuration : 1h 24mn\nSource duration : 41mn 46s\nBit rate : 969 Kbps\nWidth : 720 pixels\nHeight : 304 pixels\nDisplay aspect ratio : 2.35:1\nFrame rate : 23.976 fps\nColor space : YUV\nChroma subsampling : 4:2:0\nCompression mode : Lossy\nBits/(Pixel*Frame) : 0.185\nStream size : 586 MiB (45%)\n\nAudio\nID : 1\nFormat : AC-3\nFormat/Info : Audio Coding 3\nCodec ID : 2000\nDuration : 1h 24mn\nSource duration : 41mn 46s\nBit rate mode : Constant\nBit rate : 224 Kbps\nChannel(s) : 6 channels\nSampling rate : 48.0 KHz\nCompression mode : Lossy\nStream size : 66.9 MiB (5%)\nAlignment : Aligned on interleaves\nInterleave, duration : 64 ms (1.53 video frames)\nInterleave, preload duration : 192 ms\n\n\nSCREENS:\n &lt;a href=&quot;\nhttp://imgh.us/ELL030hF.jpeg&quot; rel=&quot;nofollow&quot; target=&quot;_NEW&quot;&gt;\nhttp://imgh.us/ELL030hF.jpeg&lt;/a&gt; &lt;a href=&quot;\nhttp://imgh.us/I2xm0BOG.jpeg&quot; rel=&quot;nofollow&quot; target=&quot;_NEW&quot;&gt;\nhttp://imgh.us/I2xm0BOG.jpeg&lt;/a&gt;","torrent":{"xt":"urn:btih:e228725c413583989c816df3fd94d79b05652378","amp;dn":"Hard+Boiled+Sweets+2012+BDRIP+XVID+AC3-WDR","amp;tr":["udp%3A%2F%2Ftracker.openbittorrent.com%3A80","udp%3A%2F%2Fopen.demonii.com%3A1337","udp%3A%2F%2Ftracker.coppersurfer.tk%3A6969","udp%3A%2F%2Fexodus.desync.com%3A6969"],"infoHash":"e228725c413583989c816df3fd94d79b05652378","infoHashBuffer":{"type":"Buffer","data":[226,40,114,92,65,53,131,152,156,129,109,243,253,148,215,155,5,101,35,120]},"announce":[],"urlList":[]}}